<?xml version="1.0" encoding="UTF-8"?>
<svg xmlns="http://www.w3.org/2000/svg" xmlns:xlink="http://www.w3.org/1999/xlink" width="170px" height="80px" viewBox="0 0 68 29" version="1.1">
<g id="surface1" transform="translate(0, 4)">
<path style="stroke:none;fill-rule:evenodd;fill:rgb(255,255,255);fill-opacity:1;" d="M 55.953125 8.75 C 55.707031 8.753906 55.46875 8.652344 55.296875 8.476562 C 55.121094 8.300781 55.027344 8.058594 55.027344 7.808594 C 55.027344 7.292969 55.4375 6.859375 55.957031 6.859375 C 56.203125 6.859375 56.441406 6.957031 56.613281 7.136719 C 56.785156 7.3125 56.882812 7.554688 56.882812 7.804688 C 56.882812 8.328125 56.464844 8.75 55.953125 8.75 M 55.957031 6.953125 C 55.734375 6.953125 55.519531 7.042969 55.363281 7.203125 C 55.207031 7.363281 55.121094 7.582031 55.125 7.808594 C 55.125 8.277344 55.480469 8.65625 55.953125 8.65625 C 56.175781 8.660156 56.386719 8.570312 56.546875 8.40625 C 56.703125 8.246094 56.789062 8.03125 56.785156 7.804688 C 56.789062 7.578125 57.703125 7.359375 56.546875 7.203125 C 56.390625 7.042969 56.179688 6.953125 55.957031 6.953125 M 56.164062 7.898438 L 56.425781 8.273438 L 56.203125 8.273438 L 55.96875 7.929688 L 55.765625 7.929688 L 55.765625 8.273438 L 55.582031 8.273438 L 55.582031 7.285156 L 56.015625 7.285156 C 56.238281 7.285156 56.386719 7.402344 56.386719 7.601562 C 56.386719 7.761719 56.296875 7.859375 56.164062 7.898438 M 56.007812 7.453125 L 55.765625 7.453125 L 55.765625 7.765625 L 56.007812 7.765625 C 56.125 7.765625 56.199219 7.707031 56.199219 7.609375 C 56.199219 7.507812 56.125 7.453125 56.007812 7.453125 M 44.421875 4.210938 C 43.902344 4.210938 43.476562 4.640625 43.476562 5.171875 C 43.476562 5.703125 43.898438 6.132812 44.421875 6.132812 C 44.941406 6.132812 45.363281 5.703125 45.363281 5.171875 C 45.363281 4.640625 44.941406 4.210938 44.421875 4.210938 M 45.074219 6.871094 L 43.757812 6.871094 C 43.703125 6.871094 43.660156 6.917969 43.660156 6.972656 L 43.660156 12.8125 C 43.660156 12.867188 43.703125 12.910156 43.757812 12.910156 L 45.074219 12.910156 C 45.125 12.910156 45.171875 12.867188 45.171875 12.8125 L 45.171875 6.972656 C 45.171875 6.917969 45.125 6.871094 45.074219 6.871094 M 48 6.878906 L 48 6.695312 C 48 6.148438 48.203125 5.90625 48.664062 5.90625 C 48.9375 5.90625 49.160156 5.960938 49.40625 6.046875 C 49.4375 6.054688 49.46875 6.050781 49.492188 6.03125 C 49.519531 6.011719 49.535156 5.984375 49.53125 5.953125 L 49.53125 4.824219 C 49.53125 4.78125 49.503906 4.742188 49.464844 4.730469 C 49.109375 4.621094 48.742188 4.566406 48.371094 4.570312 C 47.15625 4.570312 46.511719 5.265625 46.511719 6.585938 L 46.511719 6.867188 L 45.878906 6.867188 C 45.828125 6.867188 45.785156 6.910156 45.78125 6.964844 L 45.78125 8.121094 C 45.78125 8.175781 45.828125 8.222656 45.878906 8.222656 L 46.511719 8.222656 L 46.511719 12.816406 C 46.511719 12.867188 46.554688 12.914062 46.609375 12.914062 L 47.925781 12.914062 C 47.976562 12.914062 48.019531 12.867188 48.019531 12.8125 L 48.019531 8.21875 L 49.25 8.21875 L 51.132812 12.8125 C 50.917969 13.296875 50.707031 13.390625 50.421875 13.390625 C 50.1875 13.390625 49.945312 13.320312 49.695312 13.183594 C 49.671875 13.167969 49.644531 13.167969 49.617188 13.175781 C 49.59375 13.183594 49.574219 13.203125 49.5625 13.230469 L 49.117188 14.222656 C 49.09375 14.269531 49.113281 14.324219 49.15625 14.351562 C 49.621094 14.609375 50.042969 14.71875 50.5625 14.71875 C 51.535156 14.71875 52.070312 14.257812 52.546875 13.015625 L 54.828125 7.011719 C 54.839844 6.980469 54.835938 6.949219 54.820312 6.921875 C 54.800781 6.894531 54.769531 6.878906 54.738281 6.878906 L 53.371094 6.878906 C 53.328125 6.878906 53.292969 6.90625 53.277344 6.945312 L 51.875 11.023438 L 50.335938 6.941406 C 50.324219 6.902344 50.285156 6.878906 50.246094 6.878906 L 48 6.878906 M 42.953125 6.871094 L 41.503906 6.871094 L 41.503906 5.367188 C 41.503906 5.339844 41.496094 5.316406 41.476562 5.296875 C 41.457031 5.277344 41.433594 5.269531 41.410156 5.269531 L 40.09375 5.269531 C 40.039062 5.269531 39.996094 5.3125 39.996094 5.367188 L 39.996094 6.871094 L 39.363281 6.871094 C 39.335938 6.871094 39.3125 6.882812 39.292969 6.902344 C 39.277344 6.921875 39.265625 6.945312 39.265625 6.972656 L 39.265625 8.121094 C 39.265625 8.175781 39.308594 8.21875 39.363281 8.21875 L 39.996094 8.21875 L 39.996094 11.199219 C 39.996094 12.402344 40.585938 13.011719 41.746094 13.011719 C 42.21875 13.011719 42.609375 12.914062 42.976562 12.699219 C 43.007812 12.683594 43.027344 12.648438 43.027344 12.613281 L 43.027344 11.519531 C 43.027344 11.484375 43.011719 11.453125 42.980469 11.433594 C 42.953125 11.417969 42.917969 11.414062 42.886719 11.429688 C 42.632812 11.558594 42.390625 11.621094 42.113281 11.621094 C 41.691406 11.621094 41.503906 11.425781 41.503906 10.988281 L 41.503906 8.21875 L 42.953125 8.21875 C 42.976562 8.21875 43.003906 8.210938 43.019531 8.191406 C 43.039062 8.171875 43.046875 8.148438 43.046875 8.121094 L 43.046875 6.972656 C 43.046875 6.945312 43.039062 6.921875 43.019531 6.902344 C 43.003906 6.882812 42.976562 6.871094 42.953125 6.871094 M 36.011719 6.75 C 34.238281 6.75 32.847656 8.140625 32.847656 9.914062 C 32.847656 11.671875 34.230469 13.042969 35.992188 13.042969 C 37.769531 13.042969 39.164062 11.660156 39.164062 9.890625 C 39.164062 8.128906 37.78125 6.75 36.011719 6.75 M 36.011719 11.6875 C 35.070312 11.6875 34.355469 10.914062 34.355469 9.890625 C 34.355469 8.863281 35.042969 8.121094 35.992188 8.121094 C 36.941406 8.121094 37.65625 8.890625 37.65625 9.914062 C 37.65625 10.941406 36.964844 11.6875 36.011719 11.6875 M 29.667969 6.75 C 28.925781 6.75 28.316406 7.046875 27.816406 7.65625 L 27.816406 6.972656 C 27.816406 6.917969 27.773438 6.871094 27.71875 6.871094 L 26.402344 6.871094 C 26.351562 6.871094 26.308594 6.917969 26.308594 6.972656 L 26.308594 14.585938 C 26.308594 14.636719 26.351562 14.683594 26.402344 14.683594 L 27.71875 14.683594 C 27.773438 14.683594 27.816406 14.636719 27.816406 14.585938 L 27.816406 12.183594 C 28.316406 12.753906 28.925781 13.035156 29.667969 13.035156 C 31.042969 13.035156 32.4375 11.953125 32.4375 9.890625 C 32.4375 7.828125 31.042969 6.75 29.667969 6.75 M 30.90625 9.890625 C 30.90625 10.941406 30.273438 11.675781 29.363281 11.675781 C 28.460938 11.675781 27.78125 10.910156 27.78125 9.890625 C 27.78125 8.875 28.460938 8.109375 29.363281 8.109375 C 30.257812 8.109375 30.910156 8.859375 30.910156 9.890625 M 23.273438 8.226562 C 21.804688 7.867188 21.542969 7.617188 21.542969 7.09375 C 21.542969 6.59375 22.003906 6.261719 22.6875 6.261719 C 23.351562 6.261719 24.007812 6.515625 24.695312 7.039062 C 24.71875 7.054688 24.742188 7.058594 24.769531 7.054688 C 24.792969 7.050781 24.816406 7.039062 24.832031 7.015625 L 25.550781 5.984375 C 25.578125 5.945312 25.570312 5.886719 25.53125 5.851562 C 24.710938 5.183594 23.789062 4.859375 22.710938 4.859375 C 21.121094 4.859375 20.011719 5.828125 20.011719 7.214844 C 20.011719 8.699219 20.96875 9.226562 22.621094 9.632812 C 24.027344 9.964844 24.265625 10.238281 24.265625 10.734375 C 24.265625 11.28125 23.785156 11.621094 23.011719 11.621094 C 22.15625 11.621094 21.457031 11.324219 20.671875 10.636719 C 20.652344 10.621094 20.628906 10.613281 20.601562 10.613281 C 20.578125 10.613281 20.550781 10.628906 20.535156 10.648438 L 19.730469 11.621094 C 19.695312 11.664062 19.703125 11.722656 19.742188 11.757812 C 20.628906 12.578125 21.785156 13.027344 22.980469 13.023438 C 24.691406 13.023438 25.796875 12.070312 25.796875 10.601562 C 25.796875 9.355469 25.066406 8.667969 23.273438 8.226562 M 8.601562 0.28125 C 3.898438 0.28125 0.0859375 4.160156 0.0859375 8.945312 C 0.0859375 13.726562 3.898438 17.605469 8.601562 17.605469 C 13.304688 17.605469 17.117188 13.726562 17.117188 8.945312 C 17.117188 4.160156 13.304688 0.28125 8.601562 0.28125 M 12.507812 12.777344 C 12.433594 12.898438 12.316406 12.984375 12.179688 13.019531 C 12.042969 13.054688 11.898438 13.03125 11.777344 12.957031 C 9.777344 11.710938 7.261719 11.429688 4.296875 12.121094 C 4.011719 12.1875 3.726562 12.003906 3.664062 11.714844 C 3.597656 11.421875 3.777344 11.132812 4.0625 11.066406 C 7.304688 10.3125 10.085938 10.636719 12.332031 12.035156 C 12.578125 12.1875 12.660156 12.523438 12.507812 12.777344 M 13.546875 10.417969 C 13.355469 10.734375 12.949219 10.832031 12.636719 10.640625 C 10.347656 9.207031 6.859375 8.792969 4.152344 9.628906 C 3.808594 9.710938 3.464844 9.511719 3.359375 9.167969 C 3.257812 8.824219 3.4375 8.460938 3.765625 8.335938 C 6.859375 7.382812 10.703125 7.84375 13.328125 9.488281 C 13.480469 9.582031 13.585938 9.730469 13.628906 9.90625 C 13.667969 10.082031 13.640625 10.265625 13.546875 10.417969 M 13.636719 7.960938 C 10.894531 6.300781 6.367188 6.148438 3.746094 6.960938 C 3.472656 7.046875 3.171875 6.980469 2.964844 6.78125 C 2.753906 6.582031 2.664062 6.285156 2.730469 6 C 2.796875 5.714844 3.007812 5.492188 3.285156 5.410156 C 6.289062 4.480469 11.289062 4.660156 14.449219 6.566406 C 14.828125 6.796875 14.953125 7.292969 14.726562 7.679688 C 14.503906 8.0625 14.015625 8.191406 13.636719 7.960938 "/>
</g>
</svg>
